<svg width="720" height="477" viewBox="0 0 720 477" fill="none" xmlns="http://www.w3.org/2000/svg">
<ellipse cx="568.736" cy="447.005" rx="29.7362" ry="29.9945" fill="#FEDAC4"/>
<path d="M240.472 119.104C240.472 103.463 237.388 87.9755 231.396 73.5251C225.404 59.0747 216.621 45.9447 205.549 34.8849C194.477 23.825 181.332 15.0518 166.866 9.06628C152.399 3.08072 136.894 -6.8369e-07 121.236 0L121.236 119.104H240.472Z" fill="#C7CD9F"/>
<path d="M479.528 119.104C479.528 95.5478 472.518 72.5201 459.384 52.9335C446.25 33.3469 427.582 18.081 405.742 9.06628C383.901 0.0515524 359.868 -2.30711 336.682 2.28856C313.496 6.88423 292.198 18.2278 275.482 34.8849C258.765 51.5419 247.381 72.7643 242.769 95.8683C238.157 118.972 240.524 142.92 249.571 164.684C258.618 186.447 273.938 205.049 293.594 218.136C313.251 231.223 336.36 238.209 360 238.209V119.104H479.528Z" fill="#C7CD9F"/>
<path d="M718 119.104C718 103.463 714.916 87.9755 708.923 73.5251C702.931 59.0747 694.148 45.9447 683.076 34.8849C672.004 23.825 658.86 15.0518 644.393 9.06628C629.927 3.08072 614.422 -6.8369e-07 598.763 0L598.763 119.104H718Z" fill="#FC7C9D"/>
<path d="M240.472 357.604C240.472 373.284 243.564 388.809 249.57 403.295C255.577 417.781 264.382 430.943 275.481 442.03C286.58 453.117 299.757 461.911 314.258 467.912C328.76 473.912 344.303 477 360 477C375.696 477 391.239 473.912 405.741 467.912C420.243 461.911 433.419 453.117 444.519 442.03C455.618 430.943 464.422 417.781 470.429 403.295C476.436 388.809 479.527 373.284 479.527 357.604L360 357.604L240.472 357.604Z" fill="#C7CD9F"/>
<path d="M599 357.604C599 373.284 602.092 388.809 608.099 403.295C614.106 417.781 622.91 430.943 634.009 442.03C645.109 453.117 658.285 461.911 672.787 467.912C687.289 473.912 702.832 477 718.528 477L718.528 357.604L599 357.604Z" fill="#C7CD9F"/>
<path d="M479.527 0C479.527 15.6793 482.611 31.205 488.604 45.6907C494.596 60.1765 503.379 73.3385 514.451 84.4254C525.523 95.5123 538.667 104.307 553.134 110.307C567.6 116.307 583.105 119.396 598.764 119.396V1.04124e-05L479.527 0Z" fill="#5A3A51"/>
<rect x="479.527" y="119.396" width="118.945" height="118.813" fill="#FEDAC4"/>
<path d="M240.473 0H360L240.473 119.396V0Z" fill="#FEDAC4"/>
<path d="M240.473 357.604L240.473 477L121.529 357.604L240.473 357.604Z" fill="#FEDAC4"/>
<path d="M240.473 357.604L240.473 477L360.001 357.604L240.473 357.604Z" fill="#FB8585"/>
<rect x="2" y="119.396" width="119.528" height="118.813" fill="#FEDAC4"/>
<rect x="2" y="357.604" width="119.528" height="119.396" fill="#FEDAC4"/>
<path d="M240 338.209C240 282.98 284.772 238.209 340 238.209H359.528V357.604H240V338.209Z" fill="#5A3A51"/>
<path d="M2 100C2 44.7715 46.7715 0 102 0H121.528V19.3956C121.528 74.624 76.7561 119.396 21.5277 119.396H2V100Z" fill="#FEDAC4"/>
<path d="M479.527 338.209C479.527 282.98 524.299 238.209 579.527 238.209H598.472V257.604C598.472 312.833 553.7 357.604 498.472 357.604H479.527V338.209Z" fill="#FFC700"/>
<rect x="481.527" y="359.604" width="114.945" height="115.396" stroke="#FFC700" stroke-width="4"/>
<ellipse cx="389.736" cy="208.506" rx="29.7362" ry="29.7033" fill="#C7CD9F"/>
<ellipse cx="688.263" cy="149.099" rx="29.7362" ry="29.7033" fill="#FEDAC4"/>
<ellipse cx="389.736" cy="89.4011" rx="29.7362" ry="29.9945" fill="#FFC700"/>
<ellipse cx="91.5003" cy="29.7033" rx="30.0277" ry="29.7033" fill="#FFC442"/>
<ellipse cx="210.736" cy="327.901" rx="29.7362" ry="29.7033" fill="#FFC442"/>
<path d="M240.472 238.5C240.472 262.057 247.482 285.084 260.616 304.671C273.75 324.257 292.418 339.523 314.258 348.538C336.099 357.553 360.132 359.911 383.318 355.316C406.504 350.72 427.802 339.377 444.518 322.72C461.235 306.062 472.619 284.84 477.231 261.736C481.843 238.632 479.476 214.684 470.429 192.921C461.382 171.157 446.062 152.556 426.406 139.468C406.749 126.381 383.64 119.396 360 119.396L360 238.5L240.472 238.5Z" stroke="#FFC700" stroke-width="4"/>
<path d="M240.472 238.5C240.472 214.943 233.479 191.916 220.377 172.329C207.276 152.743 188.653 137.477 166.866 128.462C145.078 119.447 121.104 117.089 97.9743 121.684C74.8448 126.28 53.5989 137.623 36.9235 154.28C20.248 170.938 8.89184 192.16 4.29109 215.264C-0.309664 238.368 2.05161 262.316 11.0763 284.079C20.101 305.843 35.3838 324.444 54.9921 337.532C74.6004 350.619 97.6535 357.604 121.236 357.604L121.236 238.5H240.472Z" stroke="#FC7C9D" stroke-width="4"/>
<path d="M598.764 119.396C575.181 119.396 552.128 126.381 532.519 139.468C512.911 152.556 497.628 171.157 488.604 192.921C479.579 214.684 477.218 238.632 481.818 261.736C486.419 284.84 497.775 306.062 514.451 322.72C531.126 339.377 552.372 350.72 575.502 355.316C598.631 359.911 622.606 357.553 644.393 348.538C666.181 339.523 684.803 324.257 697.905 304.671C711.007 285.084 718 262.057 718 238.5L598.764 238.5L598.764 119.396Z" stroke="#FC7C9D" stroke-width="4"/>
</svg>
